<?xml version="1.0" encoding="UTF-8"?>
<svg width="315px" height="68px" viewBox="0 0 315 68" version="1.1" xmlns="http://www.w3.org/2000/svg" xmlns:xlink="http://www.w3.org/1999/xlink">
    <!-- Generator: Sketch 57.1 (83088) - https://sketch.com -->
    <title>Nextuple Logo_NO-Tagline</title>
    <desc>Created with Sketch.</desc>
    <g id="Nextuple-Logo_NO-Tagline" stroke="none" stroke-width="1" fill="none" fill-rule="evenodd">
        <g id="nextuplelogo_WITHTAG_FINAL_fullcolor-Copy" fill-rule="nonzero">
            <g id="Group" transform="translate(69.000000, 0.000000)" fill="#3B4752">
                <path d="M35.293,34.454 C35.22,34.595 35.189,34.805 35.189,35.086 C35.189,35.333 35.249,35.525 35.37,35.666 C35.494,35.808 35.662,35.876 35.87,35.876 C36.293,35.876 36.654,35.696 36.954,35.321 C37.251,34.953 37.454,34.769 37.559,34.769 C37.736,34.769 37.875,34.883 37.98,35.114 C38.085,35.342 38.14,35.616 38.14,35.929 C38.172,36.947 37.837,37.942 37.139,38.906 C36.436,39.874 35.409,40.663 34.053,41.278 C32.7,41.895 31.077,42.203 29.178,42.203 C26.861,42.203 25.014,41.666 23.641,40.593 C22.273,39.524 21.572,38.091 21.535,36.3 C21.535,34.999 21.848,33.546 22.487,31.923 L25.382,24.334 C25.556,23.877 25.65,23.508 25.65,23.226 C25.65,22.774 25.496,22.411 25.2,22.148 C24.903,21.884 24.539,21.755 24.118,21.755 C23.347,21.755 22.608,22.11 21.903,22.833 C21.201,23.553 20.691,24.44 20.375,25.495 L17.109,36.244 C16.968,36.634 16.898,36.999 16.898,37.352 C16.898,37.771 16.987,38.116 17.163,38.379 C17.337,38.642 17.581,38.916 17.9,39.196 C18.147,39.405 18.319,39.602 18.426,39.776 C18.532,39.954 18.547,40.165 18.477,40.408 C18.338,40.866 18.004,41.2 17.479,41.411 C16.953,41.62 16.126,41.726 15.004,41.726 L2.982,41.726 C2.069,41.726 1.411,41.576 1.009,41.277 C0.606,40.981 0.455,40.584 0.56,40.092 C0.702,39.672 1.069,39.299 1.667,38.986 C2.19,38.705 2.632,38.371 2.982,37.982 C3.335,37.596 3.635,36.981 3.878,36.139 L8.569,20.906 C8.637,20.734 8.676,20.485 8.676,20.171 C8.676,19.783 8.596,19.486 8.436,19.274 C8.281,19.063 8.024,18.799 7.672,18.481 C7.323,18.203 7.074,17.959 6.938,17.745 C6.792,17.536 6.777,17.254 6.882,16.901 C7.091,16.094 8.203,15.382 10.203,14.767 C12.207,14.154 14.296,13.848 16.475,13.848 C18.225,13.848 19.617,14.329 20.635,15.295 C21.656,16.263 22.113,17.603 22.01,19.325 C23.446,17.253 24.973,15.821 26.592,15.03 C28.205,14.241 29.967,13.847 31.868,13.847 C34.006,13.847 35.739,14.497 37.056,15.793 C38.374,17.095 39.03,18.779 39.03,20.855 C39.03,21.945 38.856,23.014 38.509,24.069 L35.293,34.454 Z" id="Path"></path>
                <path d="M67.972,15.719 C69.972,17.139 70.974,18.961 70.974,21.173 C70.974,21.84 70.902,22.457 70.764,23.017 C70.241,25.332 68.767,26.996 66.361,27.997 C63.953,28.998 61.12,29.498 57.849,29.498 C56.201,29.498 54.653,29.394 53.209,29.183 C53.174,31.013 53.667,32.295 54.689,33.031 C55.706,33.769 57.128,34.139 58.959,34.139 C59.802,34.139 60.607,34.039 61.385,33.847 C62.153,33.658 63.14,33.367 64.332,32.979 C65.318,32.627 65.985,32.45 66.337,32.45 C66.726,32.45 66.914,32.681 66.914,33.136 C66.952,34.37 66.492,35.66 65.544,37.009 C64.597,38.366 63.193,39.515 61.327,40.464 C59.467,41.413 57.217,41.89 54.581,41.89 C50.684,41.89 47.486,40.904 44.988,38.935 C42.493,36.967 41.246,34.105 41.246,30.344 C41.246,29.291 41.387,28.063 41.667,26.653 C42.548,22.335 44.469,19.076 47.441,16.878 C50.41,14.682 54.02,13.5839958 58.274,13.5839958 C62.734,13.582 65.965,14.295 67.972,15.719 Z M54.162,26.073 C55.639,26.073 56.759,25.39 57.534,24.019 C58.305,22.647 58.68,21.117 58.638,19.431 C58.605,18.451 58.322,17.958 57.798,17.958 C57.411,17.958 56.957,18.266 56.426,18.877 C55.9,19.494 55.383,20.415 54.873,21.645 C54.363,22.875 53.932,24.333 53.581,26.021 C53.715,26.055 53.912,26.073 54.162,26.073 Z" id="Shape"></path>
                <path d="M98.197,1.418 C98.92,2.182 99.287,3.128 99.287,4.253 C99.287,4.764 99.202,5.284 99.043,5.821 C98.752,6.731 98.314,7.414 97.739,7.87 C97.161,8.329 96.514,8.554 95.788,8.554 C94.93,8.554 94.098,8.276 93.293,7.709 L91.278,9.6 C91.949,11.421 92.504,12.778 92.933,13.661 C93.361,14.547 93.711,15.117 93.98,15.37 C94.25,15.628 94.553,15.757 94.902,15.757 C95.085,15.757 95.326,15.681 95.627,15.535 C95.925,15.387 96.151,15.31 96.311,15.31 C96.472,15.31 96.608,15.386 96.709,15.535 C96.814,15.681 96.874,15.875 96.874,16.115 C96.874,16.25 96.848,16.451 96.789,16.718 C96.577,17.629 96.125,18.463 95.421,19.212 C94.724,19.964 93.898,20.556 92.934,21.002 C91.966,21.443 90.988,21.665 90,21.665 C89.006,21.665 88.146,21.537 87.42,21.28 C86.695,21.028 85.966,20.457 85.213,19.575 C84.46,18.688 83.695,17.359 82.916,15.595 L81.917,17.843 C81.271,19.264 80.62,20.263 79.964,20.839 C79.308,21.417 78.532,21.706 77.649,21.706 C76.475,21.706 75.509,21.33 74.755,20.577 C74.003,19.829 73.628,18.874 73.628,17.723 C73.628,17.186 73.708,16.664 73.874,16.157 C74.167,15.245 74.603,14.562 75.179,14.104 C75.754,13.648 76.407,13.421 77.129,13.421 C77.99,13.421 78.817,13.702 79.622,14.266 L81.634,12.373 C80.989,10.554 80.463,9.192 80.064,8.292 C79.662,7.396 79.32,6.823 79.04,6.564 C78.755,6.307 78.442,6.182 78.088,6.182 C77.906,6.182 77.671,6.253 77.389,6.402 C77.11,6.551 76.887,6.626 76.726,6.626 C76.324,6.626 76.123,6.345 76.123,5.78 C76.123,5.698 76.15,5.524 76.206,5.258 C76.554,3.864 77.396,2.685 78.736,1.719 C80.072,0.754 81.511,0.273 83.042,0.273 C84,0.273 84.851,0.42 85.592,0.714 C86.328,1.007 87.067,1.598 87.803,2.483 C88.54,3.367 89.286,4.654 90.035,6.344 L91.163,3.811 C91.749,2.522 92.364,1.612 93.017,1.076 C93.651,0.54 94.461,0.272 95.419,0.272 C96.552,0.274 97.473,0.655 98.197,1.418 Z" id="Path"></path>
                <path d="M124.451,14.953 C124.82,15.234 125.009,15.621 125.009,16.113 C125.009,16.254 124.972,16.501 124.9,16.849 C124.445,18.399 123.388,19.17 121.739,19.17 L118.68,19.17 L114.729,32.185 C114.55,32.711 114.469,33.26 114.469,33.822 C114.469,34.454 114.643,34.895 114.997,35.136 C115.338,35.384 115.835,35.506 116.473,35.506 C117.031,35.506 117.731,35.436 118.577,35.295 C118.999,35.191 119.362,35.136 119.681,35.136 C119.929,35.136 120.113,35.217 120.235,35.374 C120.356,35.535 120.423,35.735 120.423,35.98 C120.456,36.684 119.942,37.535 118.866,38.538 C117.797,39.539 116.345,40.399 114.519,41.122 C112.688,41.839 110.671,42.202 108.457,42.202 C106.066,42.202 104.151,41.657 102.713,40.565 C101.27,39.479 100.549,37.982 100.549,36.086 C100.549,35.209 100.69,34.368 100.979,33.557 L104.348,23.121 C104.525,22.524 104.608,22.05 104.608,21.698 C104.608,20.993 104.441,20.4 104.115,19.905 C103.776,19.414 103.314,18.903 102.714,18.377 C102.188,17.887 101.819,17.475 101.606,17.138 C101.399,16.806 101.341,16.41 101.447,15.954 C101.59,15.498 101.888,15.145 102.344,14.898 C102.804,14.653 103.521,14.532 104.509,14.532 L107.455,14.532 L110.78,11.208 C111.94,10.048 112.995,9.241 113.968,8.786 C114.926,8.329 116.19,8.1 117.732,8.1 C119.951,8.1 121.055,8.941 121.055,10.629 C121.055,11.158 120.983,11.649 120.844,12.107 L120.108,14.532 L122.903,14.532 C123.567,14.533 124.086,14.67 124.451,14.953 Z" id="Path"></path>
                <path d="M154.368,34.454 C154.29,34.736 154.253,34.947 154.253,35.086 C154.253,35.333 154.319,35.525 154.437,35.666 C154.565,35.808 154.732,35.876 154.943,35.876 C155.358,35.876 155.721,35.696 156.02,35.321 C156.324,34.953 156.524,34.769 156.635,34.769 C156.807,34.769 156.955,34.883 157.081,35.114 C157.2,35.342 157.259,35.616 157.259,35.929 C157.302,36.911 156.949,37.89 156.208,38.854 C155.469,39.823 154.431,40.619 153.097,41.252 C151.764,41.888 150.266,42.202 148.622,42.202 C146.542,42.202 144.894,41.78 143.66,40.936 C142.431,40.092 141.643,38.986 141.294,37.615 C140.023,39.021 138.626,40.084 137.1,40.806 C135.576,41.522 134.019,41.887 132.438,41.887 C129.979,41.887 127.914,41.277 126.244,40.069 C124.574,38.853 123.744,37.159 123.744,34.981 C123.744,33.997 123.913,32.977 124.265,31.921 L127.644,20.905 C127.748,20.589 127.8,20.329 127.8,20.114 C127.8,19.732 127.713,19.423 127.534,19.192 C127.362,18.966 127.097,18.727 126.747,18.479 C126.389,18.201 126.144,17.957 126.008,17.743 C125.868,17.534 125.856,17.252 125.955,16.899 C126.169,16.092 127.273,15.38 129.275,14.765 C131.28,14.152 133.365,13.846 135.545,13.846 C137.588,13.846 139.08,14.232 140.024,15.004 C140.978,15.775 141.453,16.831 141.453,18.165 C141.453,18.975 141.325,19.746 141.082,20.483 L137.765,31.448 C137.617,31.834 137.552,32.205 137.552,32.555 C137.552,33.045 137.695,33.416 137.975,33.661 C138.26,33.905 138.623,34.029 139.081,34.029 C139.742,34.029 140.293,33.835 140.716,33.449 C141.136,33.063 141.557,32.411 141.984,31.5 L145.192,20.903 C145.301,20.587 145.353,20.327 145.353,20.112 C145.353,19.73 145.264,19.421 145.088,19.19 C144.913,18.964 144.663,18.725 144.348,18.477 C143.998,18.199 143.751,17.955 143.613,17.741 C143.477,17.532 143.456,17.25 143.563,16.897 C143.731,16.09 144.827,15.378 146.831,14.763 C148.831,14.15 150.923,13.844 153.1,13.844 C155.135,13.844 156.643,14.23 157.605,15.002 C158.569,15.773 159.058,16.81 159.058,18.109 C159.058,18.776 158.915,19.57 158.636,20.481 L154.368,34.454 Z" id="Path"></path>
                <path d="M193.16,16.322 C194.698,18.114 195.472,20.555 195.472,23.648 C195.472,25.301 195.242,27.038 194.791,28.866 C193.729,33.223 191.769,36.537 188.881,38.803 C186.002,41.07 182.668,42.203 178.87,42.203 C176.449,42.203 174.342,41.691 172.544,40.675 L170.855,46.315 C170.719,46.701 170.651,47.071 170.651,47.419 C170.651,47.805 170.734,48.131 170.914,48.398 C171.089,48.656 171.322,48.914 171.599,49.162 C171.874,49.44 172.062,49.668 172.153,49.845 C172.242,50.019 172.248,50.23 172.175,50.479 C172.036,50.935 171.706,51.261 171.178,51.454 C170.652,51.65 169.838,51.743 168.746,51.743 L156.685,51.743 C155.769,51.743 155.112,51.589 154.704,51.295 C154.3,50.998 154.188,50.618 154.367,50.16 C154.431,49.882 154.555,49.652 154.732,49.478 C154.906,49.3 155.154,49.14 155.469,49.003 C155.997,48.647 156.418,48.287 156.735,47.919 C157.054,47.554 157.33,46.964 157.579,46.158 L165.274,20.908 C165.381,20.592 165.424,20.332 165.424,20.117 C165.424,19.735 165.338,19.426 165.166,19.195 C164.988,18.969 164.725,18.73 164.376,18.482 C164.024,18.204 163.774,17.96 163.639,17.746 C163.496,17.537 163.48,17.255 163.589,16.902 C163.792,16.095 164.908,15.383 166.906,14.768 C168.913,14.155 171.001,13.849 173.179,13.849 C174.722,13.849 175.991,14.235 176.999,15.007 C178,15.778 178.571,16.85 178.712,18.22 C181.101,15.164 183.788,13.635 186.774,13.635 C189.478,13.635 191.607,14.533 193.16,16.322 Z M181.927,22.808 C181.927,22.068 181.812,21.584 181.586,21.358 C181.354,21.129 181.031,21.013 180.608,21.013 C180.292,21.013 179.889,21.163 179.396,21.465 C178.907,21.758 178.414,22.263 177.918,22.967 L173.752,36.77 C174.178,37.194 174.686,37.406 175.285,37.406 C176.237,37.406 177.138,36.872 178,35.797 C178.858,34.73 179.748,32.56 180.661,29.291 C181.51,26.16 181.927,24.001 181.927,22.808 Z" id="Shape"></path>
                <path d="M216.949,3.937 C217.917,4.712 218.396,5.767 218.396,7.102 C218.396,7.872 218.274,8.629 218.033,9.368 L209.754,36.245 C209.647,36.668 209.597,37.035 209.597,37.353 C209.597,37.809 209.688,38.169 209.86,38.436 C210.035,38.696 210.287,38.955 210.602,39.198 C210.842,39.444 211.019,39.65 211.126,39.804 C211.235,39.963 211.248,40.166 211.178,40.409 C211.003,40.867 210.652,41.201 210.123,41.412 C209.597,41.621 208.788,41.727 207.7,41.727 L195.688,41.727 C194.77,41.727 194.105,41.577 193.688,41.278 C193.26,40.982 193.121,40.585 193.26,40.093 C193.399,39.673 193.771,39.3 194.364,38.987 C194.89,38.706 195.33,38.372 195.687,37.983 C196.036,37.597 196.328,36.982 196.577,36.14 L204.59,9.841 C204.735,9.405 204.899,8.742 204.634,8.326 C204.297,7.804 203.32,8.051 202.803,8.048 C202.21,8.048 201.447,8.042 200.999,7.579 C199.991,6.532 203.053,4.925 203.846,4.559 C205.949,3.602 208.197,3.053 210.492,2.857 C211.137,2.802 211.795,2.775 212.439,2.775 C214.48,2.777 215.983,3.165 216.949,3.937 Z" id="Path"></path>
                <path d="M242.487,15.719 C244.487,17.139 245.49,18.961 245.49,21.173 C245.49,21.84 245.416,22.457 245.279,23.017 C244.751,25.332 243.281,26.996 240.879,27.997 C238.473,28.998 235.634,29.498 232.364,29.498 C230.711,29.498 229.169,29.394 227.726,29.183 C227.691,31.013 228.184,32.295 229.205,33.031 C230.226,33.769 231.644,34.139 233.47,34.139 C234.317,34.139 235.123,34.039 235.896,33.847 C236.671,33.658 237.652,33.367 238.847,32.979 C239.829,32.627 240.5,32.45 240.852,32.45 C241.238,32.45 241.429,32.681 241.429,33.136 C241.466,34.37 241.008,35.66 240.059,37.009 C239.112,38.366 237.707,39.515 235.84,40.464 C233.98,41.413 231.734,41.89 229.096,41.89 C225.199,41.89 222.001,40.904 219.502,38.935 C217.01,36.967 215.76,34.105 215.76,30.344 C215.76,29.291 215.903,28.063 216.187,26.653 C217.062,22.335 218.984,19.076 221.962,16.878 C224.924,14.682 228.534,13.5839958 232.786,13.5839958 C237.25,13.582 240.486,14.295 242.487,15.719 Z M228.674,26.073 C230.153,26.073 231.277,25.39 232.053,24.019 C232.821,22.647 233.189,21.117 233.159,19.431 C233.12,18.451 232.843,17.958 232.314,17.958 C231.932,17.958 231.47,18.266 230.944,18.877 C230.414,19.494 229.897,20.415 229.385,21.645 C228.879,22.875 228.447,24.333 228.099,26.021 C228.236,26.055 228.432,26.073 228.674,26.073 Z" id="Shape"></path>
            </g>
            <polygon id="Path" fill="#B62367" points="34.601 50.697 19.052 40.086 34.601 29.464 50.15 40.086"></polygon>
            <polygon id="Path" fill="#B62367" points="16.969 21.409 1.417 10.797 16.969 0.186 32.515 10.797"></polygon>
            <polygon id="Path" fill="#63B1DC" points="15.925 38.601 0.377 27.979 0.377 12.43 15.925 23.039"></polygon>
            <polygon id="Path" fill="#B62367" points="52.014 21.409 36.46 10.797 52.014 0.186 67.562 10.797"></polygon>
            <polygon id="Path" fill="#63B1DC" points="50.973 38.601 35.421 27.979 35.425 12.43 50.973 23.039"></polygon>
            <polygon id="Path" fill="#63B1DC" points="33.561 67.878 18.009 57.264 18.011 41.715 33.561 52.329"></polygon>
        </g>
    </g>
</svg>